
        <svg xmlns="http://www.w3.org/2000/svg" xmlns:xlink="http://www.w3.org/1999/xlink" version="1.1" width="2270.4407398656513" 
        height="3216.2324514157767" viewBox="0 0 2270.4407398656513 3216.2324514157767">
			
			<g transform="scale(10.811622570788817) translate(10, 10)">
				<defs id="SvgjsDefs3271"><linearGradient id="SvgjsLinearGradient3274"><stop id="SvgjsStop3275" stop-color="#8f5e25" offset="0"></stop><stop id="SvgjsStop3276" stop-color="#fbf4a1" offset="0.5"></stop><stop id="SvgjsStop3277" stop-color="#8f5e25" offset="1"></stop></linearGradient></defs><g id="SvgjsG3272" featureKey="dYASrj-0" transform="matrix(19.791665880216524,0,0,19.791665880216524,-5.937489382923071,-118.35415290378917)" fill="url(#SvgjsLinearGradient3274)"><path d="M0.3 5.98 l0.74 0 l0 13.28 l1.98 0 l0 -4.82 l2.46 0 c0.9 0 1.64 -0.2 2.26 -0.62 c0.96 -0.58 1.46 -1.76 1.46 -3.3 c0 -2.48 -1.4 -3.8 -3.98 -3.8 l-2.86 0 l0 4.98 l2.56 0 c1.04 0 1.44 -0.32 1.44 -1.18 c0 -0.7 -0.34 -1.04 -1.04 -1.04 l-1.52 0 l0 1.62 l-0.74 0.02 l0 -2.34 l2.26 0 c1.1 0 1.72 0.64 1.72 1.74 c0 1.28 -0.7 1.92 -2.12 1.92 l-3.24 0 l0 -6.46 l3.54 0 c2.9 0 4.68 1.68 4.68 4.54 c0 2.96 -1.62 4.66 -4.42 4.66 l-1.72 0 l0 4.82 l-3.46 0 l0 -14.02 z M1.68 13.1 l3.36 0 c1.86 0 2.76 -0.8 2.76 -2.48 c0 -1.58 -0.86 -2.5 -2.24 -2.5 l-2.5 0 l0 -0.72 l2.5 0 c0.56 0 1.08 0.12 1.54 0.38 c0.94 0.5 1.42 1.5 1.42 2.84 c0 2.08 -1.16 3.18 -3.48 3.18 l-2.68 0 l0 5 l-0.68 0 l0 -5.7 z"></path></g>
			</g>
		</svg>
	